<svg xmlns:dc="http://purl.org/dc/elements/1.1/" xmlns:cc="http://creativecommons.org/ns#" xmlns:rdf="http://www.w3.org/1999/02/22-rdf-syntax-ns#" xmlns:svg="http://www.w3.org/2000/svg" xmlns="http://www.w3.org/2000/svg" xmlns:sodipodi="http://sodipodi.sourceforge.net/DTD/sodipodi-0.dtd" xmlns:inkscape="http://www.inkscape.org/namespaces/inkscape" width="100" height="100" viewBox="0 0 80 80" version="1.1" id="svg2" inkscape:version="0.48.2 r9819" sodipodi:docname="certificate.svg">
  <metadata id="metadata10">
    <rdf:RDF>
      <cc:Work rdf:about="">
        <dc:format>image/svg+xml</dc:format>
        <dc:type rdf:resource="http://purl.org/dc/dcmitype/StillImage"/>
        <dc:title/>
      </cc:Work>
    </rdf:RDF>
  </metadata>
  <defs id="defs8"/>
  <sodipodi:namedview pagecolor="#ffffff" bordercolor="#666666" borderopacity="1" objecttolerance="10" gridtolerance="10" guidetolerance="10" inkscape:pageopacity="0" inkscape:pageshadow="2" inkscape:window-width="1366" inkscape:window-height="706" id="namedview6" showgrid="true" inkscape:zoom="3.0931056" inkscape:cx="52.617086" inkscape:cy="62.597656" inkscape:window-x="-8" inkscape:window-y="-8" inkscape:window-maximized="1" inkscape:current-layer="svg2" inkscape:snap-grids="false">
    <inkscape:grid type="xygrid" id="grid3807"/>
  </sodipodi:namedview>
  <path style="font-size:medium;font-style:normal;font-variant:normal;font-weight:normal;font-stretch:normal;text-indent:0;text-align:start;text-decoration:none;line-height:normal;letter-spacing:normal;word-spacing:normal;text-transform:none;direction:ltr;block-progression:tb;writing-mode:lr-tb;text-anchor:start;baseline-shift:baseline;color:#000000;fill:#000000;fill-opacity:1;stroke:none;stroke-width:7;marker:none;visibility:visible;display:inline;overflow:visible;enable-background:accumulate;font-family:Sans;-inkscape-font-specification:Sans" d="m 6.2612206,10.105493 0,2.947254 0,49.919106 0,2.947253 2.8693898,0 65.9191056,0 2.86939,0 0,-2.947253 0,-49.919106 0,-2.947254 -2.86939,0 -65.9191056,0 -2.8693898,0 z M 12,16 l 60.180327,0 0,44.024599 L 12,60.024599 12,16 z" id="rect2990" inkscape:connector-curvature="0"/>
  <path style="font-size:medium;font-style:normal;font-variant:normal;font-weight:normal;font-stretch:normal;text-indent:0;text-align:start;text-decoration:none;line-height:normal;letter-spacing:normal;word-spacing:normal;text-transform:none;direction:ltr;block-progression:tb;writing-mode:lr-tb;text-anchor:start;baseline-shift:baseline;color:#000000;fill:#000000;fill-opacity:1;stroke:none;stroke-width:0.92939704999999995;marker:none;visibility:visible;display:inline;overflow:visible;enable-background:accumulate;font-family:Sans;-inkscape-font-specification:Sans" d="m 15.90625,19.53125 0,0.46875 0,36 0,0.46875 0.4375,0 51.65625,0 0.46875,0 0,-0.46875 0,-36 0,-0.46875 -0.46875,0 -51.65625,0 -0.4375,0 z m 0.90625,0.9375 50.71875,0 0,35.0625 -50.71875,0 0,-35.0625 z" id="rect3760" inkscape:connector-curvature="0"/>
  <g transform="matrix(0.03023187,0,0,0.03023187,55.958323,36.734958)" id="g3835" style="fill:#000000;stroke:none">
    <path style="fill:#000000;stroke:none;stroke-width:0.09375000000000000" inkscape:connector-curvature="0" d="m 155.4,39.7 c 6.8,-12.1 14,-24 21.3,-35.8 7.1,12.1 14,24.4 21.7,36.2 10,-9.9 20.9,-18.7 31.3,-28.1 2.8,13.8 6,27.5 9.2,41.3 12.7,-5.5 25.5,-11 38.3,-16.3 -0.6,13.9 -2.4,27.8 -3.4,41.7 13.8,-1.5 27.6,-2.7 41.4,-3.8 -5.3,13 -11,25.8 -16.4,38.7 13.6,2.8 27.1,5.9 40.6,8.9 -8.6,11 -18.4,20.9 -26.8,32.1 11.7,7.1 23.6,14 35.5,21 -11.8,7.6 -24,14.6 -36,21.8 9.3,10.3 18.3,20.8 27.4,31.3 -13.4,3.6 -27.1,6.4 -40.6,9.5 5.3,13 11.3,25.7 16.3,38.8 -13.8,-1.4 -27.6,-2.5 -41.3,-4 0.8,14 2.2,27.9 3.3,41.9 -12.8,-5.5 -25.5,-11.2 -38.4,-16.2 -1.4,6.4 -3.9,13.2 -1.2,19.6 22.3,67 44.8,133.9 67.5,200.8 -18.2,-10.5 -35.7,-22 -53.8,-32.5 -9.4,17.9 -18.2,36.1 -28.1,53.7 -1.3,-4 -2.3,-8.1 -3.3,-12.2 -13.8,-60.5 -28.4,-120.9 -42.1,-181.4 -0.9,0 -1.8,0 -2.6,0 -10.9,47.5 -22.2,94.9 -33.2,142.3 -4.1,16.8 -7.3,33.8 -12.2,50.3 -9.9,-17.6 -18.5,-35.8 -28,-53.6 -18.1,10.6 -35.6,22 -53.7,32.5 23,-66.5 44.4,-133.5 67.2,-200 2.1,-6.4 0.5,-13.2 -1.1,-19.5 -13,5 -25.7,10.8 -38.5,16.2 0.9,-14 2.6,-27.9 3.4,-42 -13.8,1.4 -27.5,2.6 -41.3,4.1 5.3,-13 11.1,-25.8 16.3,-38.8 -13.4,-3.1 -27,-5.9 -40.4,-9.3 8.8,-10.8 18.3,-21.1 27.3,-31.7 -12.2,-6.9 -24.2,-14 -36.1,-21.6 12.1,-7 23.8,-14.3 36,-21 -8.9,-10.9 -18.8,-20.9 -27.3,-32.1 13.5,-2.9 27,-6.1 40.5,-8.9 C 48.8,100.7 43.2,87.8 37.8,74.9 51.7,75.6 65.5,77.2 79.2,78.7 78.5,64.8 76.9,50.9 75.9,37 c 12.8,5.2 25.4,11.2 38.4,15.9 3,-13.6 6.4,-27.1 9,-40.8 10.7,9.2 20.8,19.1 32.1,27.6 m 16.1,22.8 c -33.2,1.1 -65.4,18.4 -84.4,45.6 -21.3,29 -26,68.9 -13.7,102.6 8.4,24.2 26.4,44.7 48.5,57.5 31.1,17.9 71.1,18.7 103.4,3.1 17.7,-8.4 32.5,-22.3 43.5,-38.5 24.4,-37 23.4,-89 -2.8,-124.8 C 245.2,77.9 207.9,60.3 171.5,62.5 z" id="path3825"/>
    <path style="fill:#000000;stroke:none;stroke-width:0.09375000000000000" inkscape:connector-curvature="0" d="m 169.5,70.5 c 39.4,-3.4 79.5,19.3 97.3,54.6 9,16.4 12.1,35.4 11.2,53.9 -1.8,45.4 -38.3,86.5 -83.1,93.8 C 155.4,280.5 112.2,262.3 90.9,228 67.5,193.3 69.4,144.1 95,111 112.2,87.4 140.3,72.4 169.5,70.5 z" id="path3827"/>
  </g>
  <path style="font-size:medium;font-style:normal;font-variant:normal;font-weight:normal;font-stretch:normal;text-indent:0;text-align:start;text-decoration:none;line-height:normal;letter-spacing:normal;word-spacing:normal;text-transform:none;direction:ltr;block-progression:tb;writing-mode:lr-tb;text-anchor:start;baseline-shift:baseline;color:#000000;fill:#000000;fill-opacity:1;stroke:none;stroke-width:1.60000002000000000;marker:none;visibility:visible;display:inline;overflow:visible;enable-background:accumulate;font-family:Sans;-inkscape-font-specification:Sans" d="M 53.5 34 L 53.46875 36.03125 C 61.597547 36.113707 67.448769 37.261108 71.28125 38.4375 C 75.257927 39.658154 77.03125 40.8125 77.03125 40.8125 L 78.125 39.1875 C 78.125 39.1875 76.04289 37.841846 71.875 36.5625 C 67.860327 35.330184 61.8073 34.090263 53.5 34 z M 49.375 34.03125 C 45.542737 34.173383 42.266137 34.556462 39.46875 35.0625 L 39.875 37.03125 C 42.599327 36.561306 45.815995 36.190368 49.5625 36.0625 L 49.59375 34.03125 C 49.523065 34.033691 49.44533 34.028642 49.375 34.03125 z M 35.65625 35.90625 C 34.796055 36.124281 33.976866 36.339386 33.25 36.5625 C 29.08211 37.841846 27.03125 39.1875 27.03125 39.1875 L 28.125 40.8125 C 28.125 40.8125 29.835822 39.658154 33.8125 38.4375 C 34.490833 38.229284 35.254333 38.013961 36.0625 37.8125 L 35.65625 35.90625 z " transform="scale(0.8,0.8)" id="path3858"/>
  <path style="font-size:medium;font-style:normal;font-variant:normal;font-weight:normal;font-stretch:normal;text-indent:0;text-align:start;text-decoration:none;line-height:normal;letter-spacing:normal;word-spacing:normal;text-transform:none;direction:ltr;block-progression:tb;writing-mode:lr-tb;text-anchor:start;baseline-shift:baseline;color:#000000;fill:#000000;fill-opacity:1;stroke:none;stroke-width:1px;marker:none;visibility:visible;display:inline;overflow:visible;enable-background:accumulate;font-family:Sans;-inkscape-font-specification:Sans" d="m 20,47.6 0,0.8 12,0 0,-0.8 -12,0 z" id="path3860" inkscape:connector-curvature="0"/>
  <path style="font-size:medium;font-style:normal;font-variant:normal;font-weight:normal;font-stretch:normal;text-indent:0;text-align:start;text-decoration:none;line-height:normal;letter-spacing:normal;word-spacing:normal;text-transform:none;direction:ltr;block-progression:tb;writing-mode:lr-tb;text-anchor:start;baseline-shift:baseline;color:#000000;fill:#000000;fill-opacity:1;stroke:none;stroke-width:1px;marker:none;visibility:visible;display:inline;overflow:visible;enable-background:accumulate;font-family:Sans;-inkscape-font-specification:Sans" d="m 20,51.6 0,0.8 12,0 0,-0.8 -12,0 z" id="path3862" inkscape:connector-curvature="0"/>
</svg>