<svg xmlns="http://www.w3.org/2000/svg" xmlns:xlink="http://www.w3.org/1999/xlink" version="1.1" id="Layer_1" x="0px" y="0px" width="100px" height="98.646px" viewBox="0 0 100 98.646" enable-background="new 0 0 100 98.646" xml:space="preserve">
<path d="M69.505,11.178v22.318c0,6.152-5.025,11.178-11.172,11.178H32.826L18.438,59.062V44.674h-7.266  C5.026,44.674,0,39.648,0,33.496V11.178C0,5.026,5.026,0,11.172,0h47.161C64.479,0,69.505,5.026,69.505,11.178z"/>
<path d="M88.815,52.578h-31.85c-6.146,0-11.171,5.033-11.171,11.179v12.48c0,6.152,5.026,11.185,11.171,11.185h17.318l11.224,11.225  V87.421h3.308c6.146,0,11.185-5.032,11.185-11.185v-12.48C100,57.611,94.961,52.578,88.815,52.578z"/>
</svg>