<svg xmlns="http://www.w3.org/2000/svg" xmlns:xlink="http://www.w3.org/1999/xlink" version="1.1" x="0px" y="0px" width="100px" height="100px" viewBox="0 0 100 100" enable-background="new 0 0 100 100" xml:space="preserve">
<g id="&#12524;&#12452;&#12516;&#12540;_3" display="none">
	<path display="inline" fill="#000000" d="M61.549,4.018c1.271,0,2.303,1.145,2.303,2.557c0,0-24.986,15.756-24.985,43.705   C38.865,77.986,63.85,93.982,63.85,93.982c0.002,1.414-1.028,2.559-2.299,2.559l0,0c-1.271,0-25.584-18.555-25.583-46.261   C35.966,22.331,60.279,4.018,61.549,4.018L61.549,4.018z"/>
	<rect x="61.194" y="6.493" display="inline" fill="#000000" width="1.244" height="87.394"/>
</g>
<g id="&#12524;&#12452;&#12516;&#12540;_1" display="none">
	<rect x="60.5" y="6.762" display="inline" fill="#000000" width="3.5" height="87.396"/>
	<path display="inline" fill="#000000" d="M61.588,97.941c-2.367,0-27.92-20.541-27.92-47.771c0-27.771,25.553-47.771,27.92-47.771   l0,0c2.369,0,4.289,1.962,4.289,4.382c0,0-25.633,15.492-25.633,43.639c0,26.854,25.633,43.139,25.633,43.139   C65.877,95.98,63.957,97.941,61.588,97.941L61.588,97.941z"/>
</g>
<g id="&#12524;&#12452;&#12516;&#12540;_4" display="none">
	<path display="inline" fill="#000000" d="M75.99,32.014c0,17.463-16.975,35.42-26.028,35.42c-9.053,0-26.027-18.106-26.027-35.42   c0-15.438,11.652-27.952,26.027-27.952S75.99,16.577,75.99,32.014z"/>
	<g display="inline">
		<path fill="#000000" d="M51.123,66.397c-0.934-0.582-1.525-0.175-1.314,0.904l1.971,10.109c0.211,1.079,1.077,1.391,1.926,0.69    l5.426-4.473c0.849-0.7,0.779-1.749-0.154-2.331L51.123,66.397z"/>
	</g>
	<path display="inline" fill="#000000" d="M37.418,96.938c-0.522,0-1.029-0.272-1.305-0.758c-0.41-0.72-0.158-1.636,0.562-2.046   c5.019-2.856,4.865-5.358,4.56-10.344c-0.077-1.263-0.165-2.694-0.165-4.258c0-8.365,7.784-13.18,8.115-13.381   c0.709-0.427,1.631-0.203,2.06,0.506c0.43,0.708,0.204,1.629-0.503,2.059c-0.107,0.066-6.672,4.182-6.672,10.816   c0,1.472,0.081,2.795,0.16,4.075c0.32,5.226,0.573,9.353-6.07,13.134C37.924,96.874,37.669,96.938,37.418,96.938L37.418,96.938z"/>
</g>
<g id="&#12524;&#12452;&#12516;&#12540;_2">
	<path fill="#000000" d="M75.99,32.014c0-15.438-11.653-27.952-26.028-27.952S23.935,16.577,23.935,32.014   c0,16.021,14.529,32.708,23.872,35.114c-2.32,1.816-6.737,6.101-6.737,12.404c0,1.563,0.088,2.995,0.165,4.258   c0.305,4.985,0.458,7.487-4.56,10.344c-0.72,0.41-0.971,1.326-0.562,2.046c0.276,0.485,0.783,0.758,1.305,0.758   c0.251,0,0.506-0.063,0.741-0.196c6.643-3.781,6.39-7.908,6.07-13.134c-0.079-1.28-0.16-2.604-0.16-4.075   c0-5.484,4.477-9.239,6.093-10.417l0.249,1.278c0.21,1.079,0.555,2.847,0.766,3.926l0.603,3.092   c0.211,1.079,1.077,1.391,1.926,0.69l1.17-0.964c0.849-0.7,2.237-1.845,3.086-2.545l1.17-0.964c0.849-0.7,0.779-1.749-0.154-2.331   l-2.229-1.392c-0.934-0.582-2.461-1.535-3.395-2.117l-1.109-0.692C61.591,64.594,75.99,48.1,75.99,32.014z"/>
</g>
</svg>