<?xml version="1.0" encoding="utf-8"?>
<!-- Generator: Adobe Illustrator 17.1.0, SVG Export Plug-In . SVG Version: 6.00 Build 0)  -->
<!DOCTYPE svg PUBLIC "-//W3C//DTD SVG 1.1//EN" "http://www.w3.org/Graphics/SVG/1.1/DTD/svg11.dtd">
<svg version="1.1" id="Layer_1" xmlns="http://www.w3.org/2000/svg" xmlns:xlink="http://www.w3.org/1999/xlink" x="0px" y="0px"
	 viewBox="0 0 100 61.476" enable-background="new 0 0 100 61.476" xml:space="preserve">
<path fill="#FFFFFF" d="M96.723,0H3.279C1.229,0,0,1.23,0,3.28v54.918c0,2.049,1.229,3.278,3.279,3.278h93.444
	c2.049,0,3.277-1.229,3.277-3.278V3.28C100,1.23,98.771,0,96.723,0z M91.749,4.919L49.181,38.525L7.359,4.919H91.749z
	 M93.443,56.558H6.557c-1.025,0-1.639-0.615-1.639-1.641V9.134l44.263,35.129l45.9-36.429v47.083
	C95.082,55.943,94.468,56.558,93.443,56.558z"/>
</svg>
