<?xml version="1.0" encoding="utf-8"?>
<!-- Generator: Adobe Illustrator 17.1.0, SVG Export Plug-In . SVG Version: 6.00 Build 0)  -->
<!DOCTYPE svg PUBLIC "-//W3C//DTD SVG 1.1//EN" "http://www.w3.org/Graphics/SVG/1.1/DTD/svg11.dtd">
<svg version="1.1" id="Layer_1" xmlns="http://www.w3.org/2000/svg" xmlns:xlink="http://www.w3.org/1999/xlink" x="0px" y="0px"
	 viewBox="0 0 100 100" enable-background="new 0 0 100 100" xml:space="preserve">
<g id="レイヤー_3" display="none">
	<path display="inline" d="M61.549,4.018c1.271,0,2.303,1.145,2.303,2.557c0,0-24.986,15.756-24.985,43.705
		C38.865,77.986,63.85,93.982,63.85,93.982c0.002,1.414-1.028,2.559-2.299,2.559l0,0c-1.271,0-25.584-18.555-25.583-46.261
		C35.966,22.331,60.279,4.018,61.549,4.018L61.549,4.018z"/>
	<rect x="61.194" y="6.493" display="inline" width="1.244" height="87.394"/>
</g>
<g id="レイヤー_1" display="none">
	<rect x="60.5" y="6.762" display="inline" width="3.5" height="87.396"/>
	<path display="inline" d="M61.588,97.941c-2.367,0-27.92-20.541-27.92-47.771c0-27.771,25.553-47.771,27.92-47.771l0,0
		c2.369,0,4.289,1.962,4.289,4.382c0,0-25.633,15.492-25.633,43.639c0,26.854,25.633,43.139,25.633,43.139
		C65.877,95.98,63.957,97.941,61.588,97.941L61.588,97.941z"/>
</g>
<g id="レイヤー_4" display="none">
	<path display="inline" d="M75.99,32.014c0,17.463-16.975,35.42-26.028,35.42s-26.027-18.106-26.027-35.42
		c0-15.438,11.652-27.952,26.027-27.952S75.99,16.577,75.99,32.014z"/>
	<g display="inline">
		<path d="M51.123,66.397c-0.934-0.582-1.525-0.175-1.314,0.904L51.78,77.41c0.211,1.079,1.077,1.391,1.926,0.69l5.426-4.473
			c0.849-0.7,0.779-1.749-0.154-2.331L51.123,66.397z"/>
	</g>
	<path display="inline" d="M37.418,96.938c-0.522,0-1.029-0.272-1.305-0.758c-0.41-0.72-0.158-1.636,0.562-2.046
		c5.019-2.856,4.865-5.358,4.56-10.344c-0.077-1.263-0.165-2.694-0.165-4.258c0-8.365,7.784-13.18,8.115-13.381
		c0.709-0.427,1.631-0.203,2.06,0.506c0.43,0.708,0.204,1.629-0.503,2.059c-0.107,0.066-6.672,4.182-6.672,10.816
		c0,1.472,0.081,2.795,0.16,4.075c0.32,5.226,0.573,9.353-6.07,13.134C37.924,96.874,37.669,96.938,37.418,96.938L37.418,96.938z"/>
</g>
<polygon fill="#231F20" points="8.591,8.591 8.591,27.823 56.418,27.88 8.674,71.75 8.591,91.205 91.123,91.205 91.123,70.453 
	45.824,70.453 91.205,28.029 91.205,8.591 "/>
</svg>
