<svg xmlns="http://www.w3.org/2000/svg" xmlns:xlink="http://www.w3.org/1999/xlink" version="1.1" id="Layer_1" x="0px" y="0px" width="100px" height="100px" viewBox="0 0 100 100" enable-background="new 0 0 100 100" xml:space="preserve">
<path d="M100,100L74.193,3.226H41.917C38.729,1.209,34.992,0,30.973,0H20.64C9.293,0,0,9.293,0,20.64v10.333  c0,9.841,7,18.12,16.261,20.148L3.226,100H100z M54.839,96.466h-6.452V83.55h6.452V96.466z M54.839,70.641h-6.452V57.73h6.452  V70.641z M54.839,44.815h-6.452v-2.898c1.852-2.93,2.961-6.344,3.131-10.011h3.32V44.815z M48.387,6.086h6.452v12.909h-3.396  c-0.271-3.396-1.323-6.559-3.055-9.299V6.086z M2.583,30.973V20.64c0-9.955,8.103-18.057,18.057-18.057h10.333  c9.955,0,18.057,8.103,18.057,18.057v10.333c0,9.955-8.103,18.057-18.057,18.057H20.64C10.686,49.03,2.583,40.927,2.583,30.973z"/>
<polygon points="25.807,30.368 15.31,40.864 10.749,36.303 21.245,25.807 10.749,15.31 15.31,10.749 25.807,21.245 36.303,10.749   40.864,15.31 30.368,25.807 40.864,36.303 36.303,40.864 "/>
</svg>