<?xml version="1.0" encoding="utf-8"?>
<!-- Generator: Adobe Illustrator 17.1.0, SVG Export Plug-In . SVG Version: 6.00 Build 0)  -->
<!DOCTYPE svg PUBLIC "-//W3C//DTD SVG 1.1//EN" "http://www.w3.org/Graphics/SVG/1.1/DTD/svg11.dtd">
<svg version="1.1" id="Layer_1" xmlns="http://www.w3.org/2000/svg" xmlns:xlink="http://www.w3.org/1999/xlink" x="0px" y="0px"
	 viewBox="0 0 792 612" enable-background="new 0 0 792 612" xml:space="preserve">
<g>
	<path fill="#FFFFFF" d="M551.721,306.864c-0.001,62.517,0.123,125.035-0.067,187.551c-0.068,22.365-10.395,38.978-30.169,49.5
		c-7.366,3.919-15.377,5.715-23.73,5.717c-67.428,0.017-134.856,0.07-202.284-0.017c-29.486-0.038-53.494-23.914-54.038-53.407
		c-0.014-0.755-0.014-1.511-0.014-2.266c-0.001-124.94-0.014-249.88,0.014-374.82c0.004-19.523,7.937-35.096,23.977-46.299
		c9.59-6.698,20.42-9.403,32.092-9.384c46.18,0.074,92.359,0.028,138.539,0.031c20.682,0.001,41.365-0.139,62.045,0.06
		c25.371,0.244,47.068,18.045,52.307,42.857c0.947,4.486,1.27,9.179,1.276,13.777C551.748,182.396,551.722,244.63,551.721,306.864z
		 M296.051,117.953c0,125.897,0,251.507,0,377.112c67.154,0,134.062,0,201.036,0c0-125.799,0-251.409,0-377.112
		C430,117.953,363.159,117.953,296.051,117.953z"/>
	<path fill="#FFFFFF" d="M393.618,475.507c-15.036-0.041-27.126-12.201-27.093-27.251c0.033-15.008,12.239-27.148,27.259-27.111
		c14.993,0.037,27.153,12.271,27.11,27.277C420.851,463.432,408.65,475.548,393.618,475.507z"/>
</g>
</svg>
