<svg xmlns="http://www.w3.org/2000/svg" xmlns:xlink="http://www.w3.org/1999/xlink" version="1.1" id="Layer_1" x="0px" y="0px" width="100px" height="100px" viewBox="0 0 100 100" enable-background="new 0 0 100 100" xml:space="preserve">
<g>
	<path d="M78.416,77.412h-5.669L55.368,16.585l-0.472-1.653c-0.045-0.092-0.097-0.18-0.147-0.27C53.863,13.081,52.191,12,50.25,12   s-3.613,1.081-4.499,2.663c-0.05,0.089-0.102,0.178-0.147,0.27l-0.472,1.653L27.754,77.412h-5.669   c-2.859,0-5.178,2.318-5.178,5.177c0,2.859,2.319,5.178,5.178,5.178h56.331c2.859,0,5.178-2.318,5.178-5.178   C83.593,79.73,81.274,77.412,78.416,77.412z M47.374,22.956h5.751l4.062,14.214H43.313L47.374,22.956z M35.769,63.566l4.062-14.213   h20.84l4.062,14.213H35.769z"/>
</g>
</svg>